<svg width="23" height="24" viewBox="0 0 23 24" fill="none" xmlns="http://www.w3.org/2000/svg">
<path d="M15.1893 8.90049H11.748C11.7167 8.90049 11.6867 8.91271 11.6646 8.93446C11.6425 8.95622 11.63 8.98573 11.63 9.0165V14.1649C11.6296 14.182 11.6332 14.1989 11.6406 14.2144C11.6479 14.2298 11.6589 14.2434 11.6725 14.254L13.6809 16.2234C13.7011 16.2446 13.729 16.257 13.7586 16.258C13.7881 16.2589 13.8168 16.2482 13.8384 16.2284L13.8434 16.2234C13.8609 16.2038 13.8706 16.1787 13.8708 16.1527V11.1068H15.2102C16.64 11.1048 18.0163 11.6417 19.0557 12.6072C19.5724 13.0792 19.9885 13.6475 20.2799 14.2789C20.5713 14.9104 20.7323 15.5925 20.7534 16.2857C20.7867 17.3693 20.4837 18.4371 19.8848 19.3473C19.2858 20.2574 18.4193 20.9667 17.4005 21.3807C16.3817 21.7948 15.2589 21.894 14.1813 21.6652C13.1037 21.4364 12.1225 20.8905 11.3682 20.0999L3.17421 12.0357C3.16287 12.0241 3.15654 12.0086 3.15654 11.9925C3.15654 11.9764 3.16287 11.9609 3.17421 11.9494L11.4078 3.84405C11.9124 3.32113 12.5206 2.90532 13.1948 2.62223C13.869 2.33913 14.595 2.19474 15.3281 2.19794C16.753 2.20454 18.1187 2.75908 19.1332 3.74299C20.1477 4.7269 20.7305 6.06209 20.757 7.46307C20.7581 7.48259 20.7642 7.50153 20.7748 7.5181C20.7854 7.53467 20.8 7.54835 20.8174 7.55786C21.495 7.93901 22.1212 8.40245 22.6812 8.93727C22.6964 8.95193 22.7152 8.96239 22.7358 8.96761C22.7564 8.97282 22.778 8.97261 22.7985 8.96698C22.8186 8.96071 22.8366 8.94906 22.8505 8.93333C22.8643 8.91759 22.8735 8.89839 22.8769 8.87785C23.0302 8.05313 23.0404 7.20883 22.9071 6.38076C22.6184 4.6228 21.7105 3.02058 20.3422 1.85421C18.9739 0.68784 17.2322 0.0315485 15.4217 7.6509e-05H15.3281C14.2956 -0.00452254 13.2729 0.198265 12.3228 0.596022C11.3727 0.993778 10.5153 1.57812 9.80291 2.31325L0.0314249 11.9196C0.011206 11.9415 0 11.97 0 11.9996C0 12.0291 0.011206 12.0576 0.0314249 12.0795L9.74249 21.6293C10.7886 22.721 12.1419 23.4813 13.6295 23.8131C15.1171 24.1449 16.6715 24.0331 18.0941 23.492C19.5168 22.9509 20.7432 22.005 21.6166 20.7752C22.49 19.5454 22.9709 18.0875 22.9977 16.5877C23.0165 15.5922 22.8312 14.6032 22.4529 13.6797C22.0746 12.7562 21.511 11.917 20.7958 11.2122C20.063 10.4815 19.1903 9.90057 18.228 9.50307C17.2658 9.10558 16.233 8.89934 15.1893 8.89624V8.90049Z" fill="#51A492"/>
</svg>
